<svg width="31" height="31" viewBox="0 0 31 31" fill="none" xmlns="http://www.w3.org/2000/svg">
<g filter="url(#filter0_d_314_815)">
<path fill-rule="evenodd" clip-rule="evenodd" d="M14.9997 0C11.8732 0 9.33732 2.15286 8.51425 5H6H4V7V21V23H6H24.002H26.002V21V7V5H24.002H21.4852C20.6621 2.15286 18.1262 0 14.9997 0ZM19.3711 5C18.6353 3.2341 16.9549 2 14.9997 2C13.0445 2 11.3641 3.2341 10.6283 5H19.3711ZM6 7H8H22.002H24.002V9V19V21H22.002H8H6V19V9V7Z" fill="#2E2C2F"/>
</g>
<defs>
<filter id="filter0_d_314_815" x="0" y="0" width="30.002" height="34" filterUnits="userSpaceOnUse" color-interpolation-filters="sRGB">
<feFlood flood-opacity="0" result="BackgroundImageFix"/>
<!-- <feColorMatrix in="SourceAlpha" type="matrix" values="0 0 0 0 0 0 0 0 0 0 0 0 0 0 0 0 0 0 127 0" result="hardAlpha"/> -->
<feOffset dy="4"/>
<feGaussianBlur stdDeviation="2"/>
<feComposite in2="hardAlpha" operator="out"/>
<feColorMatrix type="matrix" values="0 0 0 0 0 0 0 0 0 0 0 0 0 0 0 0 0 0 0.25 0"/>
<feBlend mode="normal" in2="BackgroundImageFix" result="effect1_dropShadow_314_815"/>
<feBlend mode="normal" in="SourceGraphic" in2="effect1_dropShadow_314_815" result="shape"/>
</filter>
</defs>
</svg>
