<svg width="28" height="28" viewBox="0 0 28 28" fill="none" xmlns="http://www.w3.org/2000/svg">
<path d="M14 19C16.7614 19 19 16.7615 19 14C19 11.2385 16.7614 9 14 9C11.2386 9 9 11.2385 9 14C9 16.7615 11.2386 19 14 19Z" fill="#466E44"/>
<path fill-rule="evenodd" clip-rule="evenodd" d="M0 0H28V28H0V0ZM14 21C17.866 21 21 17.866 21 14C21 10.134 17.866 7 14 7C10.134 7 7 10.134 7 14C7 17.866 10.134 21 14 21ZM24 5C24.5523 5 25 4.55225 25 4C25 3.44775 24.5523 3 24 3C23.4477 3 23 3.44775 23 4C23 4.55225 23.4477 5 24 5Z" fill="#466E44"/>
</svg>
